<?xml version="1.0" encoding="UTF-8" standalone="no"?>
<!DOCTYPE svg PUBLIC "-//W3C//DTD SVG 1.1//EN" "http://www.w3.org/Graphics/SVG/1.1/DTD/svg11.dtd">
<svg width="100%" height="100%" viewBox="0 0 64 64" version="1.1" xmlns="http://www.w3.org/2000/svg" xmlns:xlink="http://www.w3.org/1999/xlink" xml:space="preserve" xmlns:serif="http://www.serif.com/" style="fill-rule:evenodd;clip-rule:evenodd;stroke-linejoin:round;stroke-miterlimit:2;">
    <g id="A" transform="matrix(0.876923,0,0,0.876923,4.87692,15.8116)">
        <path d="M64,36.167C61.672,36.759 60.232,36.193 58.94,34.253L49.752,21.54L48.424,19.78L37.694,34.294C36.468,36.04 35.182,36.8 32.894,36.182L46.634,17.738L33.842,1.08C36.042,0.652 37.562,0.88 38.912,2.84L48.442,15.71L58.042,2.91C59.272,1.164 60.594,0.51 62.802,1.144L57.842,7.72L51.122,16.47C50.322,17.47 50.422,18.154 51.168,19.12L64,36.167ZM0.016,17.43L1.14,11.902C4.2,0.963 16.74,-3.583 25.388,3.177C30.442,7.153 31.688,12.777 31.448,19.077L2.96,19.077C2.532,30.417 10.694,37.26 21.1,33.77C24.75,32.544 26.9,29.686 27.976,26.11C28.522,24.318 29.426,24.038 31.11,24.55C30.25,29.022 28.31,32.758 24.21,35.096C18.084,38.596 9.34,37.464 4.74,32.6C2,29.777 0.868,26.2 0.36,22.377C0.28,21.745 0.12,21.143 0,20.537C0.011,19.502 0.016,18.468 0.016,17.433L0.016,17.43ZM3.012,16.67L28.756,16.67C28.588,8.47 23.482,2.646 16.504,2.596C8.844,2.536 3.344,8.222 3.012,16.67Z" style="fill-rule:nonzero;"/>
    </g>
    <g id="A1" serif:id="A" transform="matrix(0.876923,0,0,0.876923,4,14.9347)">
        <path d="M64,36.167C61.672,36.759 60.232,36.193 58.94,34.253L49.752,21.54L48.424,19.78L37.694,34.294C36.468,36.04 35.182,36.8 32.894,36.182L46.634,17.738L33.842,1.08C36.042,0.652 37.562,0.88 38.912,2.84L48.442,15.71L58.042,2.91C59.272,1.164 60.594,0.51 62.802,1.144L57.842,7.72L51.122,16.47C50.322,17.47 50.422,18.154 51.168,19.12L64,36.167ZM0.016,17.43L1.14,11.902C4.2,0.963 16.74,-3.583 25.388,3.177C30.442,7.153 31.688,12.777 31.448,19.077L2.96,19.077C2.532,30.417 10.694,37.26 21.1,33.77C24.75,32.544 26.9,29.686 27.976,26.11C28.522,24.318 29.426,24.038 31.11,24.55C30.25,29.022 28.31,32.758 24.21,35.096C18.084,38.596 9.34,37.464 4.74,32.6C2,29.777 0.868,26.2 0.36,22.377C0.28,21.745 0.12,21.143 0,20.537C0.011,19.502 0.016,18.468 0.016,17.433L0.016,17.43ZM3.012,16.67L28.756,16.67C28.588,8.47 23.482,2.646 16.504,2.596C8.844,2.536 3.344,8.222 3.012,16.67Z" style="fill-rule:nonzero;"/>
    </g>
</svg>
